REM DIRINDEX 1\6,1\2\7,1\2\8,1\2\9,1\3\10,1\3\11,1\4\12,1\4\13,1\4\14,1\5\15,1\5\16,1\5\17
REM DIRNAME folder01,folder02,folder03,folder04,folder05,folder06,folder07,folder08,folder09,folder10,folder11,folder12,folder13,folder14,folder15,folder16,folder17
TITLE ""
FILE "3Q_t2_0348-0360.mp3" MP3
  TRACK 01 AUDIO
    TITLE "7:cjc041_4458"
    INDEX 01 00:00:00
  TRACK 02 AUDIO
    TITLE "0:"
    INDEX 01 00:01:07
  TRACK 03 AUDIO
    TITLE "8:cjc041_4459"
    INDEX 01 00:01:64
  TRACK 04 AUDIO
    TITLE "0:"
    INDEX 01 00:03:23
  TRACK 05 AUDIO
    TITLE "9:cjc041_4460"
    INDEX 01 00:04:03
  TRACK 06 AUDIO
    TITLE "0:"
    INDEX 01 00:05:18
  TRACK 07 AUDIO
    TITLE "7:cjc041_4461"
    INDEX 01 00:06:71
  TRACK 08 AUDIO
    TITLE "0:"
    INDEX 01 00:07:72
  TRACK 09 AUDIO
    TITLE "8:cjc041_4462"
    INDEX 01 00:08:56
  TRACK 10 AUDIO
    TITLE "0:"
    INDEX 01 00:10:33
  TRACK 11 AUDIO
    TITLE "9:cjc041_4463"
    INDEX 01 00:11:13
  TRACK 12 AUDIO
    TITLE "0:"
    INDEX 01 00:12:20
  TRACK 13 AUDIO
    TITLE "7:cjc041_4464"
    INDEX 01 00:14:00
  TRACK 14 AUDIO
    TITLE "0:"
    INDEX 01 00:15:07
  TRACK 15 AUDIO
    TITLE "8:cjc041_4465"
    INDEX 01 00:15:62
  TRACK 16 AUDIO
    TITLE "0:"
    INDEX 01 00:17:10
  TRACK 17 AUDIO
    TITLE "9:cjc041_4466"
    INDEX 01 00:17:69
  TRACK 18 AUDIO
    TITLE "0:"
    INDEX 01 00:19:01
  TRACK 19 AUDIO
    TITLE "7:cjc041_4467"
    INDEX 01 00:20:57
  TRACK 20 AUDIO
    TITLE "0:"
    INDEX 01 00:22:03
  TRACK 21 AUDIO
    TITLE "8:cjc041_4468"
    INDEX 01 00:22:56
  TRACK 22 AUDIO
    TITLE "0:"
    INDEX 01 00:23:73
  TRACK 23 AUDIO
    TITLE "9:cjc041_4469"
    INDEX 01 00:24:47
  TRACK 24 AUDIO
    TITLE "0:"
    INDEX 01 00:25:66
  TRACK 25 AUDIO
    TITLE "7:cjc041_4470"
    INDEX 01 00:27:47
  TRACK 26 AUDIO
    TITLE "0:"
    INDEX 01 00:28:64
  TRACK 27 AUDIO
    TITLE "8:cjc041_4471"
    INDEX 01 00:29:44
  TRACK 28 AUDIO
    TITLE "0:"
    INDEX 01 00:31:04
  TRACK 29 AUDIO
    TITLE "9:cjc041_4472"
    INDEX 01 00:31:61
  TRACK 30 AUDIO
    TITLE "0:"
    INDEX 01 00:33:01
  TRACK 31 AUDIO
    TITLE "7:cjc041_4473"
    INDEX 01 00:34:57
  TRACK 32 AUDIO
    TITLE "0:"
    INDEX 01 00:36:07
  TRACK 33 AUDIO
    TITLE "8:cjc041_4474"
    INDEX 01 00:36:64
  TRACK 34 AUDIO
    TITLE "0:"
    INDEX 01 00:39:03
  TRACK 35 AUDIO
    TITLE "9:cjc041_4475"
    INDEX 01 00:39:52
  TRACK 36 AUDIO
    TITLE "0:"
    INDEX 01 00:41:00
  TRACK 37 AUDIO
    TITLE "7:cjc041_4476"
    INDEX 01 00:42:55
  TRACK 38 AUDIO
    TITLE "0:"
    INDEX 01 00:43:64
  TRACK 39 AUDIO
    TITLE "8:cjc041_4477"
    INDEX 01 00:44:48
  TRACK 40 AUDIO
    TITLE "0:"
    INDEX 01 00:47:58
  TRACK 41 AUDIO
    TITLE "9:cjc041_4478"
    INDEX 01 00:48:34
  TRACK 42 AUDIO
    TITLE "0:"
    INDEX 01 00:49:43
  TRACK 43 AUDIO
    TITLE "7:cjc041_4479"
    INDEX 01 00:51:22
  TRACK 44 AUDIO
    TITLE "0:"
    INDEX 01 00:52:37
  TRACK 45 AUDIO
    TITLE "8:cjc041_4480"
    INDEX 01 00:53:09
  TRACK 46 AUDIO
    TITLE "0:"
    INDEX 01 00:55:40
  TRACK 47 AUDIO
    TITLE "9:cjc041_4481"
    INDEX 01 00:56:18
  TRACK 48 AUDIO
    TITLE "0:"
    INDEX 01 00:57:31
  TRACK 49 AUDIO
    TITLE "7:cjc041_4482"
    INDEX 01 00:59:10
  TRACK 50 AUDIO
    TITLE "0:"
    INDEX 01 01:00:39
  TRACK 51 AUDIO
    TITLE "8:cjc041_4483"
    INDEX 01 01:01:15
  TRACK 52 AUDIO
    TITLE "0:"
    INDEX 01 01:03:10
  TRACK 53 AUDIO
    TITLE "9:cjc041_4484"
    INDEX 01 01:03:65
  TRACK 54 AUDIO
    TITLE "0:"
    INDEX 01 01:05:22
  TRACK 55 AUDIO
    TITLE "7:cjc041_4485"
    INDEX 01 01:07:04
  TRACK 56 AUDIO
    TITLE "0:"
    INDEX 01 01:08:19
  TRACK 57 AUDIO
    TITLE "8:cjc041_4486"
    INDEX 01 01:09:01
  TRACK 58 AUDIO
    TITLE "0:"
    INDEX 01 01:10:30
  TRACK 59 AUDIO
    TITLE "9:cjc041_4487"
    INDEX 01 01:11:11
  TRACK 60 AUDIO
    TITLE "0:"
    INDEX 01 01:12:32
  TRACK 61 AUDIO
    TITLE "7:cjc041_4488"
    INDEX 01 01:14:12
  TRACK 62 AUDIO
    TITLE "0:"
    INDEX 01 01:15:27
  TRACK 63 AUDIO
    TITLE "8:cjc041_4489"
    INDEX 01 01:16:03
  TRACK 64 AUDIO
    TITLE "0:"
    INDEX 01 01:17:35
  TRACK 65 AUDIO
    TITLE "9:cjc041_4490"
    INDEX 01 01:18:15
  TRACK 66 AUDIO
    TITLE "0:"
    INDEX 01 01:19:32
  TRACK 67 AUDIO
    TITLE "7:cjc041_4491"
    INDEX 01 01:21:12
  TRACK 68 AUDIO
    TITLE "0:"
    INDEX 01 01:22:19
  TRACK 69 AUDIO
    TITLE "8:cjc041_4492"
    INDEX 01 01:22:72
  TRACK 70 AUDIO
    TITLE "0:"
    INDEX 01 01:24:30
  TRACK 71 AUDIO
    TITLE "9:cjc041_4493"
    INDEX 01 01:25:11
  TRACK 72 AUDIO
    TITLE "0:"
    INDEX 01 01:26:15
  TRACK 73 AUDIO
    TITLE "7:cjc041_4494"
    INDEX 01 01:27:69
  TRACK 74 AUDIO
    TITLE "0:"
    INDEX 01 01:29:13
  TRACK 75 AUDIO
    TITLE "8:cjc041_4495"
    INDEX 01 01:29:64
  TRACK 76 AUDIO
    TITLE "0:"
    INDEX 01 01:31:47
  TRACK 77 AUDIO
    TITLE "9:cjc041_4496"
    INDEX 01 01:32:29
  TRACK 78 AUDIO
    TITLE "0:"
    INDEX 01 01:33:44
